<svg width="50" height="32" viewBox="0 0 50 32" fill="none" xmlns="http://www.w3.org/2000/svg">
<path fill-rule="evenodd" clip-rule="evenodd" d="M48.75 21.2761V24.0226L48.7496 24.0227C49.3199 24.1387 49.7496 24.6393 49.7496 25.2346V26.2222C49.7496 26.8214 49.3199 27.32 48.7496 27.436V27.4611H42.1851C41.8218 29.7012 39.8628 31.4194 37.4995 31.4194C35.1362 31.4194 33.1772 29.7012 32.8159 27.4611H15.4349C15.0716 29.7012 13.1127 31.4194 10.7494 31.4194C8.38606 31.4194 6.42514 29.6992 6.06381 27.4611H2.24936L1.50131 27.463C0.809909 27.463 0.249359 26.9064 0.249359 26.2241V25.2365C0.249359 24.5523 0.811859 23.9976 1.50131 23.9976H2.24936V12.8667C2.24936 9.45534 5.05411 6.67986 8.50136 6.67986L14.2709 6.67599V4.70261C8.18536 4.12861 3.02891 3.0559 1.46836 1.5116C1.23594 1.28355 1.18125 0.931773 1.33359 0.643789C1.48594 0.357735 1.80627 0.199249 2.13049 0.257233C7.10699 1.13857 14.8455 1.25646 21.7555 1.25646C23.2242 1.25646 24.6676 1.2526 26.0543 1.2468C26.407 1.24574 26.7559 1.24454 27.1008 1.24335L27.1009 1.24335L27.101 1.24335L27.1011 1.24335L27.1014 1.24335L27.1016 1.24335L27.1017 1.24334C28.0154 1.24019 28.9005 1.23714 29.7496 1.23714L36.1871 1.23907H36.1891C40.5466 1.23907 43.2301 1.21008 46.7106 1.04193C47.0543 1.02837 47.3727 1.24871 47.4684 1.57922C47.5641 1.90974 47.4176 2.26345 47.1149 2.4316C46.6129 2.70992 45.9879 2.9689 45.2477 3.20857V4.71036C45.2477 5.37912 44.8883 5.957 44.2848 6.25851C44.0289 6.38608 43.7594 6.44986 43.4918 6.44986C43.1286 6.44986 42.7672 6.33389 42.4547 6.10389L40.0348 4.32769C36.9528 4.77224 33.1365 5.05443 28.7498 5.15493V6.68181L33.9978 6.67988C37.3418 6.67988 40.4258 7.78737 42.9023 9.64863L43.1074 9.80711C45.1797 11.4208 46.8047 13.572 47.7676 16.0479L47.7734 16.0595L47.7871 16.0924C47.8007 16.1306 47.8154 16.1678 47.83 16.2047L47.8301 16.2049L47.8301 16.2049L47.8302 16.2051L47.8302 16.2052L47.8302 16.2053C47.8429 16.2372 47.8554 16.269 47.8672 16.3011L48.166 17.0684H48.123C48.5293 18.402 48.75 19.8149 48.75 21.2761ZM35.0001 15.5859H45.9316H45.9319C45.092 13.8715 43.8811 12.3504 42.3791 11.1328H35.0001C34.8654 11.1328 34.7501 11.2468 34.7501 11.3802V15.3385C34.7501 15.4719 34.8654 15.5859 35.0001 15.5859ZM43.75 4.71037C43.75 4.81281 43.7051 4.88625 43.6113 4.93264C43.5176 4.97903 43.4336 4.97129 43.3496 4.90945L42.0918 3.9875C42.6816 3.8754 43.2344 3.75557 43.75 3.62993L43.75 4.71037ZM25.0908 2.73601L25.0906 2.73601C24.0042 2.73935 22.8892 2.74278 21.758 2.74278L21.7584 2.74274C17.3189 2.74274 12.5376 2.69249 8.33644 2.42383C12.3714 3.17765 18.1744 3.71108 25.0004 3.71108C31.2734 3.71108 36.76 3.34776 40.7424 2.70799C39.385 2.72345 37.9182 2.72925 36.1916 2.72925H36.1897L29.7502 2.72345C28.5822 2.72345 27.3459 2.72732 26.0607 2.73312L25.0908 2.73601ZM15.7715 4.836C18.7812 5.07373 21.957 5.19549 25 5.19549C25.7636 5.19549 26.5136 5.18969 27.25 5.18003V6.67984H15.7715V4.836ZM7.49999 26.7191C7.49999 28.4934 8.95704 29.9353 10.75 29.9353C12.5429 29.9353 14 28.4934 14 26.7191C14 24.9449 12.5429 23.503 10.75 23.503C8.95704 23.503 7.49999 24.9449 7.49999 26.7191ZM37.5 29.9353C35.707 29.9353 34.25 28.4934 34.25 26.7191C34.25 24.9449 35.707 23.503 37.5 23.503C39.2929 23.503 40.75 24.9449 40.75 26.7191C40.75 28.4934 39.2929 29.9353 37.5 29.9353ZM37.5 22.0186C39.8633 22.0186 41.8242 23.7369 42.1855 25.977H48.2499V25.4822H43.7499V23.9978H47.2499V21.2784C47.2499 19.8056 47 18.3927 46.5468 17.0707H34.9998C34.035 17.0707 33.2498 16.2937 33.2498 15.3389V11.3806C33.2498 10.4258 34.035 9.64884 34.9998 9.64884H40.1113C38.281 8.70368 36.2009 8.16446 33.9978 8.16446H8.50183C5.88073 8.16446 3.74989 10.275 3.74989 12.8669V15.5863H11.2849V17.0707H3.74989V23.9978H4.74989V25.4822H1.74989V25.977H6.06433C6.42763 23.7369 8.38659 22.0186 10.7499 22.0186C13.1132 22.0186 15.0741 23.7369 15.4354 25.977H32.8144C33.1777 23.7369 35.1367 22.0186 37.5 22.0186Z" fill="white"/>
<path fill-rule="evenodd" clip-rule="evenodd" d="M22.75 11.3802V15.3385C22.75 16.2933 21.9648 17.0703 21 17.0703H16C15.0351 17.0703 14.25 16.2933 14.25 15.3385V11.3802C14.25 10.4254 15.0351 9.64844 16 9.64844H21C21.9648 9.64844 22.75 10.4254 22.75 11.3802ZM15.75 11.3802V15.3385C15.75 15.4738 15.8652 15.5859 16 15.5859H21C21.1348 15.5859 21.25 15.4719 21.25 15.3385V11.3802C21.25 11.2468 21.1348 11.1328 21 11.1328H16C15.8652 11.1328 15.75 11.2468 15.75 11.3802Z" fill="white"/>
<path fill-rule="evenodd" clip-rule="evenodd" d="M25.5 9.64844H30.5C31.4648 9.64844 32.25 10.4254 32.25 11.3802V15.3385C32.25 16.2933 31.4648 17.0703 30.5 17.0703H25.5C24.5351 17.0703 23.75 16.2933 23.75 15.3385V11.3802C23.75 10.4254 24.5351 9.64844 25.5 9.64844ZM30.5 15.5859C30.6348 15.5859 30.75 15.4719 30.75 15.3385V11.3802C30.75 11.2468 30.6348 11.1328 30.5 11.1328H25.5C25.3652 11.1328 25.25 11.2468 25.25 11.3802V15.3385C25.25 15.4719 25.3652 15.5859 25.5 15.5859H30.5Z" fill="white"/>
<path fill-rule="evenodd" clip-rule="evenodd" d="M35.5 26.7188C35.5 25.6268 36.3965 24.7396 37.5 24.7396C38.6035 24.7396 39.5 25.6287 39.5 26.7188C39.5 27.8108 38.6035 28.698 37.5 28.698C36.3965 28.698 35.5 27.8108 35.5 26.7188ZM37 26.7188C37 26.9913 37.2246 27.2136 37.5 27.2136C37.7754 27.2136 38 26.9913 38 26.7188C38 26.4463 37.7754 26.224 37.5 26.224C37.2246 26.224 37 26.4463 37 26.7188Z" fill="white"/>
<path fill-rule="evenodd" clip-rule="evenodd" d="M8.75 26.7188C8.75 25.6268 9.6465 24.7396 10.75 24.7396C11.8535 24.7396 12.75 25.6287 12.75 26.7188C12.75 27.8108 11.8535 28.698 10.75 28.698C9.6465 28.698 8.75 27.8089 8.75 26.7188ZM10.25 26.7188C10.25 26.9913 10.4746 27.2136 10.75 27.2136C11.0254 27.2136 11.25 26.9913 11.25 26.7188C11.25 26.4463 11.0254 26.224 10.75 26.224C10.4746 26.224 10.25 26.4463 10.25 26.7188Z" fill="white"/>
<path d="M16.25 23.9974H31.75V25.4818H16.25V23.9974Z" fill="white"/>
</svg>
