<svg width="16" height="45" viewBox="0 0 16 45" fill="none" xmlns="http://www.w3.org/2000/svg">
<path fill-rule="evenodd" clip-rule="evenodd" d="M0 20.5831C0 7.50231 5.42166 0.445014 7.63885 0.444458C9.85635 0.445014 15.2777 7.50186 15.2777 20.5831C15.2777 33.8 10.5346 42.7601 10.3333 43.1351L10.1371 43.4997H5.14063L4.94444 43.1351C4.74311 42.76 0 33.8 0 20.5831ZM6.94467 2.28826V2.28819L6.9448 2.28815L6.94467 2.28826ZM6.94467 2.28826V24.0557H8.33356V2.28819C10.1113 3.87499 13.8891 9.64775 13.8891 20.5833C13.8891 24.2326 13.5054 27.5624 12.9585 30.4704C12.1547 29.3263 10.6773 27.769 7.98476 26.2308C1.43809 22.4895 1.51764 17.3521 1.52298 17.1353H1.52124C2.20353 8.41861 5.3648 3.69996 6.94467 2.28826ZM1.5248 24.2243C1.46577 23.4014 1.43105 22.5577 1.41195 21.6983C2.40505 23.5437 4.16716 25.6495 7.29533 27.4375C11.7407 29.9785 12.5018 32.4919 12.5209 32.5551L12.5211 32.5557C12.1808 34.0419 11.8076 35.3908 11.4343 36.5783C10.8492 35.5419 9.818 34.2676 7.9968 33.1825C2.51236 29.9169 1.64613 25.1789 1.5248 24.2243ZM8.33347 42.1113H9.29356L9.29338 42.111C9.56942 41.5415 10.1284 40.3228 10.7639 38.5693C10.6284 37.9912 9.97916 35.979 7.28471 34.3749C4.83516 32.9149 3.22404 31.1771 2.15982 29.5486C3.29698 36.2104 5.35951 40.8231 5.98449 42.1113H6.94458V37.25H8.33347V42.1113Z" fill="white"/>
</svg>
